<mxfile host="app.diagrams.net" agent="Mozilla/5.0 (Macintosh; Intel Mac OS X 10_15_7) AppleWebKit/537.36 (KHTML, like Gecko) Chrome/134.0.0.0 Safari/537.36" version="26.2.9">
  <diagram name="Page-1" id="v9j4s3X-jX1N4L4jRJeD">
    <mxGraphModel dx="1212" dy="700" grid="1" gridSize="10" guides="1" tooltips="1" connect="1" arrows="1" fold="1" page="1" pageScale="1" pageWidth="850" pageHeight="1100" math="0" shadow="0">
      <root>
        <mxCell id="0" />
        <mxCell id="1" parent="0" />
        <mxCell id="jAtDkR0fkG0kCz2HO2_l-1" value="&lt;h1&gt;System Design Story: Adding i18n support to existing FE applications&lt;/h1&gt;" style="text;html=1;align=center;verticalAlign=middle;resizable=0;points=[];autosize=1;strokeColor=none;fillColor=none;" vertex="1" parent="1">
          <mxGeometry x="25" y="8" width="820" height="70" as="geometry" />
        </mxCell>
        <mxCell id="jAtDkR0fkG0kCz2HO2_l-55" value="" style="ellipse;whiteSpace=wrap;html=1;fillColor=#dae8fc;strokeColor=#6c8ebf;" vertex="1" parent="1">
          <mxGeometry x="280" y="110" width="190" height="392" as="geometry" />
        </mxCell>
        <mxCell id="jAtDkR0fkG0kCz2HO2_l-56" value="Actor" style="shape=umlActor;verticalLabelPosition=bottom;verticalAlign=top;html=1;outlineConnect=0;" vertex="1" parent="1">
          <mxGeometry x="65" y="162" width="30" height="60" as="geometry" />
        </mxCell>
        <mxCell id="jAtDkR0fkG0kCz2HO2_l-57" value="" style="image;aspect=fixed;html=1;points=[];align=center;fontSize=12;image=img/lib/azure2/general/Browser.svg;" vertex="1" parent="1">
          <mxGeometry x="140" y="162" width="65" height="52" as="geometry" />
        </mxCell>
        <mxCell id="jAtDkR0fkG0kCz2HO2_l-58" value="" style="html=1;verticalLabelPosition=bottom;align=center;labelBackgroundColor=#ffffff;verticalAlign=top;strokeWidth=2;strokeColor=#0080F0;shadow=0;dashed=0;shape=mxgraph.ios7.icons.smartphone;" vertex="1" parent="1">
          <mxGeometry x="150" y="219" width="18" height="30" as="geometry" />
        </mxCell>
        <mxCell id="jAtDkR0fkG0kCz2HO2_l-60" value="Spanish Speaking&amp;nbsp;&lt;div&gt;User&lt;/div&gt;" style="text;html=1;align=center;verticalAlign=middle;resizable=0;points=[];autosize=1;strokeColor=none;fillColor=none;" vertex="1" parent="1">
          <mxGeometry x="30" y="118" width="120" height="40" as="geometry" />
        </mxCell>
        <mxCell id="jAtDkR0fkG0kCz2HO2_l-61" value="Browser" style="text;html=1;align=center;verticalAlign=middle;resizable=0;points=[];autosize=1;strokeColor=none;fillColor=none;" vertex="1" parent="1">
          <mxGeometry x="137.5" y="128" width="70" height="30" as="geometry" />
        </mxCell>
        <mxCell id="jAtDkR0fkG0kCz2HO2_l-64" value="CDN (Spanish-language assets)" style="text;html=1;align=center;verticalAlign=middle;resizable=0;points=[];autosize=1;strokeColor=none;fillColor=none;" vertex="1" parent="1">
          <mxGeometry x="65" y="371" width="200" height="30" as="geometry" />
        </mxCell>
        <mxCell id="jAtDkR0fkG0kCz2HO2_l-67" value="" style="outlineConnect=0;dashed=0;verticalLabelPosition=bottom;verticalAlign=top;align=center;html=1;shape=mxgraph.aws3.android;fillColor=#8CC64F;gradientColor=none;" vertex="1" parent="1">
          <mxGeometry x="385.25" y="174" width="50" height="57" as="geometry" />
        </mxCell>
        <mxCell id="jAtDkR0fkG0kCz2HO2_l-68" value="" style="outlineConnect=0;dashed=0;verticalLabelPosition=bottom;verticalAlign=top;align=center;html=1;shape=mxgraph.aws3.android;fillColor=#8CC64F;gradientColor=none;" vertex="1" parent="1">
          <mxGeometry x="390" y="254.5" width="50" height="57" as="geometry" />
        </mxCell>
        <mxCell id="jAtDkR0fkG0kCz2HO2_l-112" style="edgeStyle=orthogonalEdgeStyle;rounded=0;orthogonalLoop=1;jettySize=auto;html=1;" edge="1" parent="1" source="jAtDkR0fkG0kCz2HO2_l-69">
          <mxGeometry relative="1" as="geometry">
            <mxPoint x="345.25" y="335.5" as="targetPoint" />
          </mxGeometry>
        </mxCell>
        <mxCell id="jAtDkR0fkG0kCz2HO2_l-69" value="" style="outlineConnect=0;dashed=0;verticalLabelPosition=bottom;verticalAlign=top;align=center;html=1;shape=mxgraph.aws3.android;fillColor=#8CC64F;gradientColor=none;" vertex="1" parent="1">
          <mxGeometry x="385.25" y="334" width="50" height="57" as="geometry" />
        </mxCell>
        <mxCell id="jAtDkR0fkG0kCz2HO2_l-71" value="" style="outlineConnect=0;dashed=0;verticalLabelPosition=bottom;verticalAlign=top;align=center;html=1;shape=mxgraph.aws3.android;fillColor=#8CC64F;gradientColor=none;" vertex="1" parent="1">
          <mxGeometry x="385.25" y="414.3" width="50" height="57" as="geometry" />
        </mxCell>
        <mxCell id="jAtDkR0fkG0kCz2HO2_l-72" value="&lt;b&gt;FE Apps&lt;/b&gt;" style="text;html=1;align=center;verticalAlign=middle;resizable=0;points=[];autosize=1;strokeColor=none;fillColor=none;" vertex="1" parent="1">
          <mxGeometry x="335.25" y="142" width="70" height="30" as="geometry" />
        </mxCell>
        <mxCell id="jAtDkR0fkG0kCz2HO2_l-84" value="" style="endArrow=classic;startArrow=classic;html=1;rounded=0;" edge="1" parent="1" source="jAtDkR0fkG0kCz2HO2_l-56">
          <mxGeometry width="50" height="50" relative="1" as="geometry">
            <mxPoint x="85" y="220" as="sourcePoint" />
            <mxPoint x="135" y="200" as="targetPoint" />
          </mxGeometry>
        </mxCell>
        <mxCell id="jAtDkR0fkG0kCz2HO2_l-85" value="" style="endArrow=classic;startArrow=classic;html=1;rounded=0;" edge="1" parent="1">
          <mxGeometry width="50" height="50" relative="1" as="geometry">
            <mxPoint x="100" y="210" as="sourcePoint" />
            <mxPoint x="140" y="234" as="targetPoint" />
          </mxGeometry>
        </mxCell>
        <mxCell id="jAtDkR0fkG0kCz2HO2_l-86" value="" style="endArrow=classic;startArrow=classic;html=1;rounded=0;exitX=0.985;exitY=0.519;exitDx=0;exitDy=0;exitPerimeter=0;" edge="1" parent="1" source="jAtDkR0fkG0kCz2HO2_l-57" target="jAtDkR0fkG0kCz2HO2_l-55">
          <mxGeometry width="50" height="50" relative="1" as="geometry">
            <mxPoint x="210" y="200" as="sourcePoint" />
            <mxPoint x="310" y="177" as="targetPoint" />
          </mxGeometry>
        </mxCell>
        <mxCell id="jAtDkR0fkG0kCz2HO2_l-89" value="" style="endArrow=classic;startArrow=classic;html=1;rounded=0;" edge="1" parent="1" source="jAtDkR0fkG0kCz2HO2_l-94">
          <mxGeometry width="50" height="50" relative="1" as="geometry">
            <mxPoint x="285.25" y="344" as="sourcePoint" />
            <mxPoint x="345.25" y="294" as="targetPoint" />
          </mxGeometry>
        </mxCell>
        <mxCell id="jAtDkR0fkG0kCz2HO2_l-90" value="&lt;h3 style=&quot;text-align: left;&quot;&gt;Problem Story:&lt;/h3&gt;&lt;div style=&quot;text-align: left;&quot;&gt;&lt;ul&gt;&lt;li&gt;&lt;i style=&quot;background-color: transparent; color: light-dark(rgb(0, 0, 0), rgb(255, 255, 255));&quot;&gt;Context: &lt;/i&gt;&lt;span style=&quot;background-color: transparent; color: light-dark(rgb(0, 0, 0), rgb(255, 255, 255));&quot;&gt;Large portion of users seek educational content in languages &lt;/span&gt;&lt;span style=&quot;background-color: transparent;&quot;&gt;&lt;font style=&quot;color: light-dark(rgb(255, 0, 0), rgb(255, 255, 255));&quot;&gt;other than English&lt;/font&gt;&lt;/span&gt;&lt;/li&gt;&lt;li&gt;&lt;i style=&quot;background-color: transparent; color: light-dark(rgb(0, 0, 0), rgb(255, 255, 255));&quot;&gt;Action&lt;/i&gt;&lt;span style=&quot;background-color: transparent; color: light-dark(rgb(0, 0, 0), rgb(255, 255, 255));&quot;&gt;: Translate the website UI to Spanish&lt;/span&gt;&lt;/li&gt;&lt;li&gt;&lt;i&gt;Results&lt;/i&gt;: &lt;font style=&quot;color: rgb(0, 204, 0);&quot;&gt;increased user engagement by 50% &lt;/font&gt;relative to the rest of the content&lt;font color=&quot;#00cc00&quot;&gt;&amp;nbsp;&lt;/font&gt;&lt;/li&gt;&lt;/ul&gt;&lt;/div&gt;" style="text;html=1;align=center;verticalAlign=middle;whiteSpace=wrap;rounded=0;textShadow=0;" vertex="1" parent="1">
          <mxGeometry x="30" y="461" width="440" height="140" as="geometry" />
        </mxCell>
        <mxCell id="jAtDkR0fkG0kCz2HO2_l-93" value="&lt;h3&gt;Simplified CH Architecture:&lt;/h3&gt;" style="text;html=1;align=center;verticalAlign=middle;whiteSpace=wrap;rounded=0;" vertex="1" parent="1">
          <mxGeometry x="30" y="78" width="200" height="30" as="geometry" />
        </mxCell>
        <mxCell id="jAtDkR0fkG0kCz2HO2_l-94" value="HeroKit" style="ellipse;whiteSpace=wrap;html=1;" vertex="1" parent="1">
          <mxGeometry x="304.75" y="217.8" width="70" height="210" as="geometry" />
        </mxCell>
        <mxCell id="jAtDkR0fkG0kCz2HO2_l-95" value="" style="endArrow=classic;startArrow=classic;html=1;rounded=0;exitX=1;exitY=0;exitDx=0;exitDy=0;" edge="1" parent="1" source="jAtDkR0fkG0kCz2HO2_l-94">
          <mxGeometry width="50" height="50" relative="1" as="geometry">
            <mxPoint x="345.25" y="268" as="sourcePoint" />
            <mxPoint x="390" y="220" as="targetPoint" />
          </mxGeometry>
        </mxCell>
        <mxCell id="jAtDkR0fkG0kCz2HO2_l-96" value="" style="endArrow=classic;startArrow=classic;html=1;rounded=0;" edge="1" parent="1">
          <mxGeometry width="50" height="50" relative="1" as="geometry">
            <mxPoint x="375.25" y="314" as="sourcePoint" />
            <mxPoint x="390.75" y="294" as="targetPoint" />
          </mxGeometry>
        </mxCell>
        <mxCell id="jAtDkR0fkG0kCz2HO2_l-98" value="" style="endArrow=classic;startArrow=classic;html=1;rounded=0;" edge="1" parent="1">
          <mxGeometry width="50" height="50" relative="1" as="geometry">
            <mxPoint x="365.25" y="404" as="sourcePoint" />
            <mxPoint x="385.25" y="447" as="targetPoint" />
          </mxGeometry>
        </mxCell>
        <mxCell id="jAtDkR0fkG0kCz2HO2_l-101" value="" style="endArrow=classic;startArrow=classic;html=1;rounded=0;" edge="1" parent="1">
          <mxGeometry width="50" height="50" relative="1" as="geometry">
            <mxPoint x="166" y="310" as="sourcePoint" />
            <mxPoint x="166" y="270" as="targetPoint" />
          </mxGeometry>
        </mxCell>
        <mxCell id="jAtDkR0fkG0kCz2HO2_l-104" value="Accept Language&lt;div&gt;IP Address&lt;/div&gt;" style="text;html=1;align=center;verticalAlign=middle;resizable=0;points=[];autosize=1;strokeColor=none;fillColor=none;" vertex="1" parent="1">
          <mxGeometry x="190" y="123" width="120" height="40" as="geometry" />
        </mxCell>
        <mxCell id="jAtDkR0fkG0kCz2HO2_l-63" value="" style="points=[];aspect=fixed;html=1;align=center;shadow=0;dashed=0;fillColor=#FF6A00;strokeColor=none;shape=mxgraph.alibaba_cloud.cdn_content_distribution_network;" vertex="1" parent="1">
          <mxGeometry x="140" y="314.7" width="51" height="42.3" as="geometry" />
        </mxCell>
        <mxCell id="jAtDkR0fkG0kCz2HO2_l-110" value="ch-virtual-services" style="text;html=1;align=center;verticalAlign=middle;resizable=0;points=[];autosize=1;strokeColor=none;fillColor=none;" vertex="1" parent="1">
          <mxGeometry x="240" y="177" width="120" height="30" as="geometry" />
        </mxCell>
        <mxCell id="jAtDkR0fkG0kCz2HO2_l-122" value="" style="edgeStyle=orthogonalEdgeStyle;rounded=0;orthogonalLoop=1;jettySize=auto;html=1;" edge="1" parent="1" source="jAtDkR0fkG0kCz2HO2_l-116" target="jAtDkR0fkG0kCz2HO2_l-121">
          <mxGeometry relative="1" as="geometry" />
        </mxCell>
        <mxCell id="jAtDkR0fkG0kCz2HO2_l-116" value="" style="verticalLabelPosition=bottom;shadow=0;dashed=0;align=center;html=1;verticalAlign=top;strokeWidth=1;shape=mxgraph.mockup.containers.userFemale;strokeColor=#666666;strokeColor2=#008cff;" vertex="1" parent="1">
          <mxGeometry x="481" y="118.5" width="38" height="27" as="geometry" />
        </mxCell>
        <mxCell id="jAtDkR0fkG0kCz2HO2_l-117" value="CH engineer Alice" style="text;html=1;align=center;verticalAlign=middle;resizable=0;points=[];autosize=1;strokeColor=none;fillColor=none;" vertex="1" parent="1">
          <mxGeometry x="440" y="78" width="120" height="30" as="geometry" />
        </mxCell>
        <mxCell id="jAtDkR0fkG0kCz2HO2_l-120" value="&lt;h3&gt;How:&lt;/h3&gt;&lt;div&gt;&lt;ol&gt;&lt;li&gt;&lt;b&gt;Evaluate&lt;/b&gt; framework (react-intl, FormatJS) and 3rd party translation service&lt;/li&gt;&lt;li&gt;&lt;b&gt;Abstract&lt;/b&gt; all i18n details in HeroKit and GitLab pipeline&lt;/li&gt;&lt;li&gt;&lt;b&gt;Integrate&lt;/b&gt; i18n &lt;b&gt;automation&lt;/b&gt; into the developer workflow&lt;/li&gt;&lt;/ol&gt;&lt;/div&gt;" style="text;html=1;align=left;verticalAlign=middle;whiteSpace=wrap;rounded=0;" vertex="1" parent="1">
          <mxGeometry x="30" y="610" width="460" height="70" as="geometry" />
        </mxCell>
        <mxCell id="jAtDkR0fkG0kCz2HO2_l-124" value="" style="edgeStyle=orthogonalEdgeStyle;rounded=0;orthogonalLoop=1;jettySize=auto;html=1;" edge="1" parent="1" source="jAtDkR0fkG0kCz2HO2_l-121" target="jAtDkR0fkG0kCz2HO2_l-123">
          <mxGeometry relative="1" as="geometry" />
        </mxCell>
        <mxCell id="jAtDkR0fkG0kCz2HO2_l-121" value="&lt;font face=&quot;Courier New&quot;&gt;&amp;lt;FormattedMessage&amp;gt; &lt;/font&gt;instead of static strings&amp;nbsp;" style="shape=process;whiteSpace=wrap;html=1;backgroundOutline=1;" vertex="1" parent="1">
          <mxGeometry x="550" y="102" width="160" height="60" as="geometry" />
        </mxCell>
        <mxCell id="jAtDkR0fkG0kCz2HO2_l-126" value="" style="edgeStyle=orthogonalEdgeStyle;rounded=0;orthogonalLoop=1;jettySize=auto;html=1;" edge="1" parent="1" source="jAtDkR0fkG0kCz2HO2_l-123" target="jAtDkR0fkG0kCz2HO2_l-125">
          <mxGeometry relative="1" as="geometry" />
        </mxCell>
        <mxCell id="jAtDkR0fkG0kCz2HO2_l-123" value="Merge Request" style="shape=document;whiteSpace=wrap;html=1;boundedLbl=1;" vertex="1" parent="1">
          <mxGeometry x="750" y="97" width="65" height="82" as="geometry" />
        </mxCell>
        <mxCell id="jAtDkR0fkG0kCz2HO2_l-128" value="" style="edgeStyle=orthogonalEdgeStyle;rounded=0;orthogonalLoop=1;jettySize=auto;html=1;" edge="1" parent="1" source="jAtDkR0fkG0kCz2HO2_l-125" target="jAtDkR0fkG0kCz2HO2_l-127">
          <mxGeometry relative="1" as="geometry" />
        </mxCell>
        <mxCell id="jAtDkR0fkG0kCz2HO2_l-125" value="Pipeline generates&lt;font face=&quot;Courier New&quot;&gt; en.json&lt;/font&gt; and&lt;font face=&quot;Courier New&quot;&gt; es.json&lt;/font&gt;" style="shape=process;whiteSpace=wrap;html=1;backgroundOutline=1;" vertex="1" parent="1">
          <mxGeometry x="712.5" y="196" width="120" height="60" as="geometry" />
        </mxCell>
        <mxCell id="jAtDkR0fkG0kCz2HO2_l-130" value="" style="edgeStyle=orthogonalEdgeStyle;rounded=0;orthogonalLoop=1;jettySize=auto;html=1;" edge="1" parent="1" source="jAtDkR0fkG0kCz2HO2_l-127" target="jAtDkR0fkG0kCz2HO2_l-129">
          <mxGeometry relative="1" as="geometry" />
        </mxCell>
        <mxCell id="jAtDkR0fkG0kCz2HO2_l-127" value="Automatically push &lt;font face=&quot;Courier New&quot;&gt;json&lt;/font&gt; to 3rd party translation service" style="shape=process;whiteSpace=wrap;html=1;backgroundOutline=1;" vertex="1" parent="1">
          <mxGeometry x="550" y="174" width="120" height="60" as="geometry" />
        </mxCell>
        <mxCell id="jAtDkR0fkG0kCz2HO2_l-132" value="" style="edgeStyle=orthogonalEdgeStyle;rounded=0;orthogonalLoop=1;jettySize=auto;html=1;" edge="1" parent="1" source="jAtDkR0fkG0kCz2HO2_l-129" target="jAtDkR0fkG0kCz2HO2_l-131">
          <mxGeometry relative="1" as="geometry" />
        </mxCell>
        <mxCell id="jAtDkR0fkG0kCz2HO2_l-134" value="" style="edgeStyle=orthogonalEdgeStyle;rounded=0;orthogonalLoop=1;jettySize=auto;html=1;" edge="1" parent="1" source="jAtDkR0fkG0kCz2HO2_l-129">
          <mxGeometry relative="1" as="geometry">
            <mxPoint x="590" y="357" as="sourcePoint" />
            <mxPoint x="606" y="402" as="targetPoint" />
            <Array as="points">
              <mxPoint x="590" y="390" />
              <mxPoint x="607" y="390" />
            </Array>
          </mxGeometry>
        </mxCell>
        <mxCell id="jAtDkR0fkG0kCz2HO2_l-129" value="Wait&lt;div&gt;for&amp;nbsp;&lt;/div&gt;&lt;div&gt;translations&lt;/div&gt;" style="ellipse;shape=cloud;whiteSpace=wrap;html=1;" vertex="1" parent="1">
          <mxGeometry x="530" y="266" width="120" height="80" as="geometry" />
        </mxCell>
        <mxCell id="jAtDkR0fkG0kCz2HO2_l-131" value="Check Internal&amp;nbsp;&lt;div&gt;Dashboard&lt;/div&gt;" style="ellipse;shape=cloud;whiteSpace=wrap;html=1;" vertex="1" parent="1">
          <mxGeometry x="710" y="266" width="120" height="80" as="geometry" />
        </mxCell>
        <mxCell id="jAtDkR0fkG0kCz2HO2_l-135" value="Webhook:&amp;nbsp;&amp;nbsp;&lt;i&gt;branchID is ready!&lt;/i&gt;" style="text;html=1;align=center;verticalAlign=middle;resizable=0;points=[];autosize=1;strokeColor=none;fillColor=none;" vertex="1" parent="1">
          <mxGeometry x="525" y="359" width="180" height="30" as="geometry" />
        </mxCell>
        <mxCell id="jAtDkR0fkG0kCz2HO2_l-139" value="" style="edgeStyle=orthogonalEdgeStyle;rounded=0;orthogonalLoop=1;jettySize=auto;html=1;" edge="1" parent="1" source="jAtDkR0fkG0kCz2HO2_l-136" target="jAtDkR0fkG0kCz2HO2_l-138">
          <mxGeometry relative="1" as="geometry" />
        </mxCell>
        <mxCell id="jAtDkR0fkG0kCz2HO2_l-136" value="" style="outlineConnect=0;dashed=0;verticalLabelPosition=bottom;verticalAlign=top;align=center;html=1;shape=mxgraph.aws3.api_gateway;fillColor=#D9A741;gradientColor=none;" vertex="1" parent="1">
          <mxGeometry x="590" y="412" width="40" height="39" as="geometry" />
        </mxCell>
        <mxCell id="jAtDkR0fkG0kCz2HO2_l-144" value="" style="edgeStyle=orthogonalEdgeStyle;rounded=0;orthogonalLoop=1;jettySize=auto;html=1;" edge="1" parent="1" source="jAtDkR0fkG0kCz2HO2_l-138" target="jAtDkR0fkG0kCz2HO2_l-142">
          <mxGeometry relative="1" as="geometry" />
        </mxCell>
        <mxCell id="jAtDkR0fkG0kCz2HO2_l-148" value="" style="edgeStyle=orthogonalEdgeStyle;rounded=0;orthogonalLoop=1;jettySize=auto;html=1;" edge="1" parent="1" source="jAtDkR0fkG0kCz2HO2_l-138" target="jAtDkR0fkG0kCz2HO2_l-147">
          <mxGeometry relative="1" as="geometry" />
        </mxCell>
        <mxCell id="jAtDkR0fkG0kCz2HO2_l-138" value="" style="outlineConnect=0;dashed=0;verticalLabelPosition=bottom;verticalAlign=top;align=center;html=1;shape=mxgraph.aws3.lambda_function;fillColor=#5294CF;gradientColor=none;" vertex="1" parent="1">
          <mxGeometry x="660" y="412" width="40" height="39" as="geometry" />
        </mxCell>
        <mxCell id="jAtDkR0fkG0kCz2HO2_l-140" value="API Gateway" style="text;html=1;align=center;verticalAlign=middle;resizable=0;points=[];autosize=1;strokeColor=none;fillColor=none;" vertex="1" parent="1">
          <mxGeometry x="505" y="409" width="90" height="30" as="geometry" />
        </mxCell>
        <mxCell id="jAtDkR0fkG0kCz2HO2_l-141" value="Lambda Function" style="text;html=1;align=center;verticalAlign=middle;resizable=0;points=[];autosize=1;strokeColor=none;fillColor=none;" vertex="1" parent="1">
          <mxGeometry x="615" y="379" width="120" height="30" as="geometry" />
        </mxCell>
        <mxCell id="jAtDkR0fkG0kCz2HO2_l-142" value="" style="shape=image;html=1;verticalAlign=top;verticalLabelPosition=bottom;labelBackgroundColor=#ffffff;imageAspect=0;aspect=fixed;image=https://cdn4.iconfinder.com/data/icons/socialcones/508/Gitlab-128.png" vertex="1" parent="1">
          <mxGeometry x="760" y="412" width="45" height="45" as="geometry" />
        </mxCell>
        <mxCell id="jAtDkR0fkG0kCz2HO2_l-145" value="GitLab" style="text;html=1;align=center;verticalAlign=middle;resizable=0;points=[];autosize=1;strokeColor=none;fillColor=none;" vertex="1" parent="1">
          <mxGeometry x="752.5" y="451" width="60" height="30" as="geometry" />
        </mxCell>
        <mxCell id="jAtDkR0fkG0kCz2HO2_l-146" value="&lt;font face=&quot;Courier New&quot;&gt;getUserId(branchId)&lt;/font&gt;" style="text;html=1;align=center;verticalAlign=middle;resizable=0;points=[];autosize=1;strokeColor=none;fillColor=none;" vertex="1" parent="1">
          <mxGeometry x="685" y="397.8" width="160" height="30" as="geometry" />
        </mxCell>
        <mxCell id="jAtDkR0fkG0kCz2HO2_l-147" value="" style="shape=image;html=1;verticalAlign=top;verticalLabelPosition=bottom;labelBackgroundColor=#ffffff;imageAspect=0;aspect=fixed;image=https://cdn2.iconfinder.com/data/icons/social-media-2285/512/1_Slack_colored_svg-128.png" vertex="1" parent="1">
          <mxGeometry x="636" y="482.3" width="24" height="24" as="geometry" />
        </mxCell>
        <mxCell id="jAtDkR0fkG0kCz2HO2_l-149" value="&lt;font face=&quot;Courier New&quot;&gt;SlackMessage(userId)&lt;/font&gt;" style="text;html=1;align=center;verticalAlign=middle;resizable=0;points=[];autosize=1;strokeColor=none;fillColor=none;" vertex="1" parent="1">
          <mxGeometry x="470" y="471.3" width="170" height="30" as="geometry" />
        </mxCell>
        <mxCell id="jAtDkR0fkG0kCz2HO2_l-153" style="edgeStyle=orthogonalEdgeStyle;rounded=0;orthogonalLoop=1;jettySize=auto;html=1;" edge="1" parent="1" source="jAtDkR0fkG0kCz2HO2_l-152" target="jAtDkR0fkG0kCz2HO2_l-145">
          <mxGeometry relative="1" as="geometry" />
        </mxCell>
        <mxCell id="jAtDkR0fkG0kCz2HO2_l-152" value="update MR" style="shape=process;whiteSpace=wrap;html=1;backgroundOutline=1;" vertex="1" parent="1">
          <mxGeometry x="640" y="528" width="120" height="60" as="geometry" />
        </mxCell>
        <mxCell id="jAtDkR0fkG0kCz2HO2_l-158" value="" style="edgeStyle=orthogonalEdgeStyle;rounded=0;orthogonalLoop=1;jettySize=auto;html=1;" edge="1" parent="1" source="jAtDkR0fkG0kCz2HO2_l-157" target="jAtDkR0fkG0kCz2HO2_l-152">
          <mxGeometry relative="1" as="geometry" />
        </mxCell>
        <mxCell id="jAtDkR0fkG0kCz2HO2_l-157" value="" style="verticalLabelPosition=bottom;shadow=0;dashed=0;align=center;html=1;verticalAlign=top;strokeWidth=1;shape=mxgraph.mockup.containers.userFemale;strokeColor=#666666;strokeColor2=#008cff;" vertex="1" parent="1">
          <mxGeometry x="557" y="534" width="38" height="27" as="geometry" />
        </mxCell>
        <mxCell id="jAtDkR0fkG0kCz2HO2_l-159" value="" style="sketch=0;outlineConnect=0;fontColor=#232F3E;gradientColor=none;fillColor=#ED7100;strokeColor=none;dashed=0;verticalLabelPosition=bottom;verticalAlign=top;align=center;html=1;fontSize=12;fontStyle=0;aspect=fixed;pointerEvents=1;shape=mxgraph.aws4.instance_with_cloudwatch2;" vertex="1" parent="1">
          <mxGeometry x="657" y="611" width="48" height="48" as="geometry" />
        </mxCell>
        <mxCell id="jAtDkR0fkG0kCz2HO2_l-160" value="" style="shape=mxgraph.signs.animals.dog_on_leash;html=1;pointerEvents=1;fillColor=#000000;strokeColor=none;verticalLabelPosition=bottom;verticalAlign=top;align=center;" vertex="1" parent="1">
          <mxGeometry x="710" y="618.5" width="37" height="33" as="geometry" />
        </mxCell>
        <mxCell id="jAtDkR0fkG0kCz2HO2_l-162" value="Monitoring:&lt;div&gt;&lt;ul&gt;&lt;li&gt;CloudWatch&lt;/li&gt;&lt;li&gt;DataDog&lt;/li&gt;&lt;/ul&gt;&lt;/div&gt;" style="text;html=1;align=left;verticalAlign=middle;resizable=0;points=[];autosize=1;strokeColor=none;fillColor=none;" vertex="1" parent="1">
          <mxGeometry x="525" y="610" width="130" height="80" as="geometry" />
        </mxCell>
        <mxCell id="jAtDkR0fkG0kCz2HO2_l-163" value="CH engineer Alice" style="text;html=1;align=center;verticalAlign=middle;resizable=0;points=[];autosize=1;strokeColor=none;fillColor=none;" vertex="1" parent="1">
          <mxGeometry x="510" y="504" width="120" height="30" as="geometry" />
        </mxCell>
        <mxCell id="jAtDkR0fkG0kCz2HO2_l-164" value="&amp;lt;=24 hours" style="text;html=1;align=center;verticalAlign=middle;resizable=0;points=[];autosize=1;strokeColor=none;fillColor=none;" vertex="1" parent="1">
          <mxGeometry x="640" y="268" width="80" height="30" as="geometry" />
        </mxCell>
      </root>
    </mxGraphModel>
  </diagram>
</mxfile>
